<svg id="Capa_1" enable-background="new 0 0 512 512" height="512" viewBox="0 0 512 512" width="512" xmlns="http://www.w3.org/2000/svg"><g><path d="m372.401 149.85h-91.782c-31.989 0-57.921-25.932-57.921-57.921v-24.875h91.782c31.989 0 57.921 25.932 57.921 57.921z" fill="#b31061"/><path d="m372.401 362.15h-91.782c-31.989 0-57.921 25.932-57.921 57.921v24.875h91.782c31.989 0 57.921-25.932 57.921-57.921z" fill="#830c48"/><g><path d="m372.401 149.843c-8.093-1.299-16.331-1.964-24.646-1.964h-51.032c-74.377 0-145.045 32.48-193.479 88.925l-16.471 19.196 212.614 27.825 52.915-27.825z" fill="#e07037"/><path d="m350.026 256h-263.253l16.472 19.197c48.434 56.445 119.102 88.925 193.479 88.925h51.032c8.314 0 16.553-.666 24.646-1.964z" fill="#dc4b4b"/><path d="m101.733 265.189-44.972-9.189c-31.348 0-56.761-25.413-56.761-56.761v-24.377h44.972c31.348 0 56.761 25.413 56.761 56.761z" fill="#b31061"/><path d="m101.733 256h-44.972c-31.348 0-56.761 25.413-56.761 56.761v24.377h44.972c31.348 0 56.761-25.413 56.761-56.761z" fill="#830c48"/></g><g><path d="m465.763 202.116c-24.127-28.117-57.3-46.478-93.363-52.266-17.637 31.381-27.701 67.589-27.701 106.15l83.65 10.947 83.651-10.947z" fill="#e89f7b"/><path d="m344.699 256c0 38.561 10.064 74.769 27.701 106.15 36.062-5.788 69.236-24.149 93.363-52.266l46.237-53.884z" fill="#e07037"/></g></g></svg>